<svg xmlns="http://www.w3.org/2000/svg" xmlns:xlink="http://www.w3.org/1999/xlink" width="230" zoomAndPan="magnify" viewBox="0 0 172.5 60" height="80" preserveAspectRatio="xMidYMid meet" version="1.0"><defs><g/><clipPath id="70c696054a"><path d="M 1.71875 5.554688 L 61.71875 5.554688 L 61.71875 54.304688 L 1.71875 54.304688 Z M 1.71875 5.554688 " clip-rule="nonzero"/></clipPath></defs><g clip-path="url(#70c696054a)"><path fill="#350b89" d="M 42.273438 44.222656 C 45.066406 44.222656 47.324219 46.480469 47.324219 49.265625 C 47.324219 52.050781 45.066406 54.308594 42.273438 54.308594 C 39.484375 54.308594 37.222656 52.050781 37.222656 49.265625 C 37.222656 46.480469 39.484375 44.222656 42.273438 44.222656 Z M 61.695312 8.265625 C 61.714844 8.390625 61.71875 8.488281 61.710938 8.613281 C 61.699219 8.683594 61.699219 8.75 61.683594 8.816406 C 61.664062 8.890625 61.652344 8.960938 61.628906 9.035156 C 61.578125 9.21875 61.527344 9.410156 61.46875 9.59375 C 61.273438 10.210938 61.085938 10.863281 60.863281 11.46875 C 60.199219 13.40625 59.5 15.296875 58.734375 17.199219 C 57.867188 19.296875 56.980469 21.277344 55.847656 23.25 C 55.363281 24.082031 54.886719 24.824219 54.265625 25.5625 C 53.722656 26.195312 53.21875 26.683594 52.4375 27.011719 C 51.035156 27.457031 49.429688 27.554688 47.964844 27.636719 C 38.296875 27.847656 27.828125 26.84375 18.71875 27.234375 C 18.324219 27.179688 18.019531 27.125 17.796875 27.074219 C 14.203125 26.261719 31.933594 26.167969 31.988281 26.167969 C 36.046875 26.117188 47.9375 26.140625 51.503906 24.742188 C 51.792969 24.582031 52.085938 24.230469 52.289062 23.972656 C 52.773438 23.335938 53.152344 22.683594 53.53125 21.980469 C 54.289062 20.511719 54.726562 19.566406 55.324219 18.046875 C 49.160156 18.027344 43.554688 18.273438 37.417969 18.488281 C 32.367188 18.667969 27.035156 18.71875 23.855469 18.3125 C 23.679688 18.296875 23.453125 18.246094 23.285156 18.179688 C 23.019531 18.0625 22.851562 17.933594 22.695312 17.710938 C 22.632812 17.5625 22.636719 17.445312 22.691406 17.355469 C 22.832031 17.109375 23.292969 17.023438 23.625 16.890625 C 26.09375 16.109375 29.265625 15.925781 31.953125 15.851562 C 34.96875 15.808594 55.554688 16.800781 56.253906 15.589844 C 56.945312 13.722656 57.355469 12.445312 57.9375 10.542969 C 57.972656 10.425781 58.003906 10.304688 58.042969 10.183594 C 54.699219 10.28125 51.351562 10.351562 48.015625 10.390625 C 46.476562 10.402344 25.457031 10.613281 22.375 9.007812 C 22.128906 8.878906 21.996094 8.738281 21.996094 8.585938 C 22.171875 8.21875 23.152344 8.039062 23.503906 7.964844 C 32.34375 6.582031 50.6875 7.003906 60.164062 6.980469 C 60.488281 6.980469 60.734375 7.050781 61.011719 7.21875 C 61.21875 7.355469 61.355469 7.492188 61.488281 7.699219 C 61.601562 7.890625 61.660156 8.046875 61.695312 8.265625 Z M 22.484375 34.070312 C 26.324219 34.859375 42.746094 34.691406 48.023438 34.949219 C 49.523438 35.046875 50.785156 35.261719 52.132812 35.957031 C 52.671875 36.25 53.066406 36.535156 53.472656 37 C 53.859375 37.472656 54.066406 37.890625 54.148438 38.496094 C 54.199219 39.117188 54.082031 39.574219 53.773438 40.109375 C 53.433594 40.636719 53.070312 40.960938 52.554688 41.3125 C 52.121094 41.585938 51.71875 41.773438 51.238281 41.957031 C 50.222656 42.332031 49.304688 42.53125 48.234375 42.695312 C 38.371094 43.398438 30.621094 42.238281 21.160156 41.992188 C 20.511719 41.886719 20.015625 41.792969 19.65625 41.707031 C 14.617188 40.523438 35.898438 41.226562 36.992188 41.210938 C 40.691406 41.140625 44.183594 40.996094 47.820312 40.285156 C 48.90625 40.070312 50.117188 39.777344 51.03125 39.125 C 51.113281 39.058594 51.242188 38.957031 51.332031 38.855469 C 51.183594 38.722656 51.011719 38.625 50.835938 38.539062 C 49.90625 38.136719 48.933594 38.039062 47.929688 38.011719 C 41.65625 37.945312 27.066406 38.691406 21.605469 37.902344 C 19.289062 37.335938 17.789062 36.609375 16.1875 34.828125 C 15.003906 33.367188 14.347656 32.109375 13.671875 30.390625 C 13.257812 29.332031 12.863281 28.191406 12.546875 27.105469 C 11.234375 22.550781 10.1875 17.835938 9.09375 13.222656 C 8.773438 11.886719 8.414062 10.804688 7.703125 9.625 C 7.183594 8.890625 6.695312 8.375 5.910156 7.929688 C 5.589844 7.777344 5.324219 7.683594 4.976562 7.621094 C 4.644531 7.570312 4.382812 7.570312 4.050781 7.617188 C 3.707031 7.683594 3.453125 7.769531 3.144531 7.929688 C 2.992188 8.011719 2.828125 8.148438 2.65625 8.265625 C 2.433594 8.417969 2.199219 8.546875 1.96875 8.484375 C 1.730469 8.113281 2.113281 7.394531 2.3125 7.085938 C 2.625 6.648438 2.949219 6.371094 3.417969 6.097656 C 3.484375 6.058594 3.554688 6.023438 3.625 5.988281 C 4.0625 5.78125 4.433594 5.679688 4.917969 5.621094 C 5.527344 5.554688 6.007812 5.59375 6.605469 5.738281 C 8 6.097656 8.917969 6.769531 9.890625 7.816406 C 11.113281 9.191406 11.746094 10.546875 12.316406 12.289062 C 13.726562 16.8125 14.984375 21.367188 16.386719 25.886719 C 17.070312 28.003906 17.835938 30.441406 19.230469 32.210938 C 20.203125 33.316406 21.070312 33.699219 22.484375 34.070312 Z M 25.933594 44.222656 C 28.722656 44.222656 30.984375 46.480469 30.984375 49.265625 C 30.984375 52.050781 28.722656 54.308594 25.933594 54.308594 C 23.144531 54.308594 20.882812 52.050781 20.882812 49.265625 C 20.882812 46.480469 23.144531 44.222656 25.933594 44.222656 " fill-opacity="1" fill-rule="evenodd"/></g><g fill="#350b89" fill-opacity="1"><g transform="translate(67.260361, 34.489727)"><g><path d="M 8.125 -9.1875 C 8.175781 -9.914062 8.226562 -10.585938 8.28125 -11.203125 C 8.332031 -11.816406 8.382812 -12.375 8.4375 -12.875 L 8.65625 -15 C 7.269531 -14.78125 5.796875 -14.367188 4.234375 -13.765625 C 3.859375 -13.628906 3.515625 -13.5625 3.203125 -13.5625 C 2.722656 -13.5625 2.28125 -13.691406 1.875 -13.953125 C 1.476562 -14.222656 1.164062 -14.613281 0.9375 -15.125 C 1.039062 -15.519531 1.238281 -15.8125 1.53125 -16 C 1.820312 -16.195312 2.226562 -16.394531 2.75 -16.59375 C 5.21875 -17.5 8.039062 -17.941406 11.21875 -17.921875 C 12.726562 -17.921875 14.300781 -17.859375 15.9375 -17.734375 C 17.582031 -17.617188 18.546875 -17.550781 18.828125 -17.53125 L 20.703125 -17.390625 C 20.773438 -17.390625 20.894531 -17.390625 21.0625 -17.390625 C 21.226562 -17.390625 21.363281 -17.347656 21.46875 -17.265625 C 21.570312 -17.191406 21.625 -17.066406 21.625 -16.890625 C 21.625 -16.441406 21.304688 -16.1875 20.671875 -16.125 C 19.078125 -15.9375 17.941406 -15.8125 17.265625 -15.75 C 16.566406 -15.707031 16.039062 -15.671875 15.6875 -15.640625 C 14.300781 -15.546875 13.265625 -15.472656 12.578125 -15.421875 C 12.148438 -15.390625 11.851562 -15.34375 11.6875 -15.28125 C 11.53125 -15.21875 11.429688 -15.109375 11.390625 -14.953125 C 11.347656 -14.804688 11.304688 -14.492188 11.265625 -14.015625 C 11.179688 -12.890625 10.992188 -10.960938 10.703125 -8.234375 C 10.421875 -5.765625 10.242188 -4.054688 10.171875 -3.109375 C 10.160156 -2.597656 10.046875 -1.976562 9.828125 -1.25 C 9.691406 -0.789062 9.578125 -0.484375 9.484375 -0.328125 C 9.390625 -0.179688 9.257812 -0.0859375 9.09375 -0.046875 C 8.925781 -0.015625 8.613281 -0.0078125 8.15625 -0.03125 C 7.8125 -0.03125 7.546875 -0.101562 7.359375 -0.25 C 7.179688 -0.40625 7.09375 -0.613281 7.09375 -0.875 C 7.09375 -0.925781 7.109375 -1.039062 7.140625 -1.21875 C 7.523438 -2.769531 7.851562 -5.425781 8.125 -9.1875 Z M 8.125 -9.1875 "/></g></g></g><g fill="#350b89" fill-opacity="1"><g transform="translate(87.526335, 34.489727)"><g><path d="M 4.828125 -0.59375 C 4.453125 -0.476562 4.101562 -0.421875 3.78125 -0.421875 C 2.925781 -0.421875 2.109375 -0.796875 1.328125 -1.546875 C 1.429688 -1.929688 1.609375 -2.21875 1.859375 -2.40625 C 2.109375 -2.59375 2.359375 -2.738281 2.609375 -2.84375 C 2.859375 -2.957031 3.023438 -3.03125 3.109375 -3.0625 C 4.078125 -3.46875 5.082031 -3.820312 6.125 -4.125 C 6.570312 -4.269531 6.847656 -4.554688 6.953125 -4.984375 C 7.273438 -6.066406 7.523438 -7.132812 7.703125 -8.1875 C 7.878906 -9.25 8.09375 -10.675781 8.34375 -12.46875 L 8.4375 -13.296875 C 8.457031 -13.347656 8.46875 -13.425781 8.46875 -13.53125 C 8.46875 -13.90625 8.28125 -14.164062 7.90625 -14.3125 C 7.78125 -14.363281 7.640625 -14.453125 7.484375 -14.578125 C 7.328125 -14.710938 7.203125 -14.816406 7.109375 -14.890625 L 6.46875 -14.578125 C 5.957031 -14.335938 5.375 -14.050781 4.71875 -13.71875 C 4.488281 -13.59375 4.25 -13.53125 4 -13.53125 C 3.726562 -13.53125 3.445312 -13.597656 3.15625 -13.734375 C 2.863281 -13.867188 2.691406 -13.941406 2.640625 -13.953125 C 2.472656 -14.023438 2.34375 -14.132812 2.25 -14.28125 C 2.15625 -14.425781 2.109375 -14.578125 2.109375 -14.734375 C 2.109375 -14.941406 2.175781 -15.144531 2.3125 -15.34375 C 2.507812 -15.625 2.8125 -15.914062 3.21875 -16.21875 C 4.820312 -17.414062 6.507812 -18.015625 8.28125 -18.015625 C 9.101562 -18.015625 9.910156 -17.894531 10.703125 -17.65625 C 11.453125 -17.425781 12.101562 -17.234375 12.65625 -17.078125 C 13.21875 -16.929688 13.6875 -16.804688 14.0625 -16.703125 L 15.75 -16.21875 C 15.78125 -16.21875 15.851562 -16.207031 15.96875 -16.1875 C 16.082031 -16.175781 16.164062 -16.144531 16.21875 -16.09375 C 16.332031 -16 16.445312 -15.875 16.5625 -15.71875 C 16.675781 -15.570312 16.769531 -15.457031 16.84375 -15.375 C 16.75 -15.300781 16.625 -15.191406 16.46875 -15.046875 C 16.320312 -14.910156 16.1875 -14.84375 16.0625 -14.84375 C 15.914062 -14.820312 15.691406 -14.8125 15.390625 -14.8125 C 15.160156 -14.8125 14.816406 -14.828125 14.359375 -14.859375 L 13.765625 -14.890625 L 11.875 -15.109375 L 11.75 -14.140625 C 11.519531 -12.472656 11.316406 -11.148438 11.140625 -10.171875 C 10.992188 -9.316406 10.757812 -8.171875 10.4375 -6.734375 L 10.125 -5.171875 C 11.332031 -5.328125 12.148438 -5.429688 12.578125 -5.484375 C 13.535156 -5.585938 14.253906 -5.640625 14.734375 -5.640625 C 15.316406 -5.640625 15.800781 -5.5625 16.1875 -5.40625 C 16.582031 -5.25 16.859375 -4.921875 17.015625 -4.421875 C 16.835938 -4.191406 16.640625 -4.019531 16.421875 -3.90625 C 16.203125 -3.800781 15.976562 -3.722656 15.75 -3.671875 C 15.53125 -3.617188 15.394531 -3.582031 15.34375 -3.5625 L 14.84375 -3.40625 C 13.769531 -3.09375 13.039062 -2.90625 12.65625 -2.84375 C 11.820312 -2.726562 11.007812 -2.550781 10.21875 -2.3125 C 9.425781 -2.082031 8.441406 -1.773438 7.265625 -1.390625 C 6.503906 -1.097656 5.691406 -0.832031 4.828125 -0.59375 Z M 4.828125 -0.59375 "/></g></g></g><g fill="#350b89" fill-opacity="1"><g transform="translate(105.8749, 34.489727)"><g><path d="M 8.125 -9.1875 C 8.175781 -9.914062 8.226562 -10.585938 8.28125 -11.203125 C 8.332031 -11.816406 8.382812 -12.375 8.4375 -12.875 L 8.65625 -15 C 7.269531 -14.78125 5.796875 -14.367188 4.234375 -13.765625 C 3.859375 -13.628906 3.515625 -13.5625 3.203125 -13.5625 C 2.722656 -13.5625 2.28125 -13.691406 1.875 -13.953125 C 1.476562 -14.222656 1.164062 -14.613281 0.9375 -15.125 C 1.039062 -15.519531 1.238281 -15.8125 1.53125 -16 C 1.820312 -16.195312 2.226562 -16.394531 2.75 -16.59375 C 5.21875 -17.5 8.039062 -17.941406 11.21875 -17.921875 C 12.726562 -17.921875 14.300781 -17.859375 15.9375 -17.734375 C 17.582031 -17.617188 18.546875 -17.550781 18.828125 -17.53125 L 20.703125 -17.390625 C 20.773438 -17.390625 20.894531 -17.390625 21.0625 -17.390625 C 21.226562 -17.390625 21.363281 -17.347656 21.46875 -17.265625 C 21.570312 -17.191406 21.625 -17.066406 21.625 -16.890625 C 21.625 -16.441406 21.304688 -16.1875 20.671875 -16.125 C 19.078125 -15.9375 17.941406 -15.8125 17.265625 -15.75 C 16.566406 -15.707031 16.039062 -15.671875 15.6875 -15.640625 C 14.300781 -15.546875 13.265625 -15.472656 12.578125 -15.421875 C 12.148438 -15.390625 11.851562 -15.34375 11.6875 -15.28125 C 11.53125 -15.21875 11.429688 -15.109375 11.390625 -14.953125 C 11.347656 -14.804688 11.304688 -14.492188 11.265625 -14.015625 C 11.179688 -12.890625 10.992188 -10.960938 10.703125 -8.234375 C 10.421875 -5.765625 10.242188 -4.054688 10.171875 -3.109375 C 10.160156 -2.597656 10.046875 -1.976562 9.828125 -1.25 C 9.691406 -0.789062 9.578125 -0.484375 9.484375 -0.328125 C 9.390625 -0.179688 9.257812 -0.0859375 9.09375 -0.046875 C 8.925781 -0.015625 8.613281 -0.0078125 8.15625 -0.03125 C 7.8125 -0.03125 7.546875 -0.101562 7.359375 -0.25 C 7.179688 -0.40625 7.09375 -0.613281 7.09375 -0.875 C 7.09375 -0.925781 7.109375 -1.039062 7.140625 -1.21875 C 7.523438 -2.769531 7.851562 -5.425781 8.125 -9.1875 Z M 8.125 -9.1875 "/></g></g></g><g fill="#350b89" fill-opacity="1"><g transform="translate(126.140873, 34.489727)"><g><path d="M 2.9375 -13.40625 C 3.625 -14.550781 4.695312 -15.5625 6.15625 -16.4375 C 7.3125 -17.125 8.648438 -17.46875 10.171875 -17.46875 C 11.253906 -17.46875 12.300781 -17.285156 13.3125 -16.921875 C 14.332031 -16.566406 15.171875 -16.054688 15.828125 -15.390625 C 16.054688 -15.160156 16.304688 -14.941406 16.578125 -14.734375 C 16.984375 -14.378906 17.222656 -14.15625 17.296875 -14.0625 C 18.179688 -13.125 18.625 -12.085938 18.625 -10.953125 C 18.625 -10.066406 18.335938 -9.160156 17.765625 -8.234375 C 17.023438 -7.003906 16.253906 -5.925781 15.453125 -5 C 14.648438 -4.082031 13.753906 -3.296875 12.765625 -2.640625 C 11.078125 -1.515625 9.457031 -0.953125 7.90625 -0.953125 C 7.445312 -0.953125 6.988281 -1.007812 6.53125 -1.125 C 4.976562 -1.457031 3.722656 -2.175781 2.765625 -3.28125 C 1.804688 -4.394531 1.328125 -5.664062 1.328125 -7.09375 C 1.328125 -8.175781 1.628906 -9.257812 2.234375 -10.34375 C 2.273438 -10.425781 2.351562 -10.507812 2.46875 -10.59375 C 2.582031 -10.6875 2.675781 -10.757812 2.75 -10.8125 L 3.359375 -10.515625 L 3.9375 -10.234375 C 4.488281 -9.929688 4.847656 -9.679688 5.015625 -9.484375 C 5.191406 -9.285156 5.28125 -9.007812 5.28125 -8.65625 C 5.28125 -8.40625 5.25 -8.066406 5.1875 -7.640625 C 5.175781 -7.484375 5.171875 -7.253906 5.171875 -6.953125 C 5.171875 -6.296875 5.25 -5.503906 5.40625 -4.578125 C 5.445312 -4.316406 5.554688 -4.113281 5.734375 -3.96875 C 5.921875 -3.820312 6.160156 -3.75 6.453125 -3.75 C 6.585938 -3.75 6.703125 -3.757812 6.796875 -3.78125 C 7.628906 -3.9375 8.34375 -4.117188 8.9375 -4.328125 C 9.53125 -4.546875 10.066406 -4.867188 10.546875 -5.296875 C 11.429688 -6.066406 12.203125 -6.804688 12.859375 -7.515625 C 13.523438 -8.222656 14.101562 -8.984375 14.59375 -9.796875 C 14.9375 -10.367188 15.109375 -10.921875 15.109375 -11.453125 C 15.109375 -11.898438 15.007812 -12.335938 14.8125 -12.765625 C 14.613281 -13.191406 14.328125 -13.671875 13.953125 -14.203125 C 13.335938 -15.054688 12.53125 -15.484375 11.53125 -15.484375 C 11.175781 -15.484375 10.8125 -15.425781 10.4375 -15.3125 C 10.3125 -15.28125 9.742188 -15.097656 8.734375 -14.765625 C 8.628906 -14.722656 8.519531 -14.679688 8.40625 -14.640625 C 8.289062 -14.609375 8.171875 -14.578125 8.046875 -14.546875 L 5.015625 -13.671875 C 4.617188 -13.546875 4.015625 -13.375 3.203125 -13.15625 Z M 2.9375 -13.40625 "/></g></g></g><g fill="#350b89" fill-opacity="1"><g transform="translate(145.554664, 34.489727)"><g><path d="M 12.125 -18.96875 C 12.5625 -18.789062 12.78125 -18.539062 12.78125 -18.21875 C 12.78125 -17.90625 12.5625 -17.5 12.125 -17 C 11.925781 -17.007812 11.640625 -17.015625 11.265625 -17.015625 C 10.453125 -17.015625 9.671875 -16.90625 8.921875 -16.6875 C 8.179688 -16.46875 7.410156 -16.128906 6.609375 -15.671875 C 6.234375 -15.429688 5.910156 -15.132812 5.640625 -14.78125 C 5.453125 -14.570312 5.359375 -14.328125 5.359375 -14.046875 C 5.359375 -13.566406 5.625 -13.101562 6.15625 -12.65625 C 6.664062 -12.125 7.507812 -11.15625 8.6875 -9.75 L 9.296875 -9.109375 C 10.171875 -8.171875 10.859375 -7.375 11.359375 -6.71875 C 11.867188 -6.0625 12.300781 -5.304688 12.65625 -4.453125 C 12.800781 -4.078125 12.875 -3.738281 12.875 -3.4375 C 12.875 -2.675781 12.578125 -1.972656 11.984375 -1.328125 C 11.304688 -0.585938 10.523438 -0.046875 9.640625 0.296875 C 8.753906 0.648438 7.753906 0.867188 6.640625 0.953125 C 6.492188 0.972656 6.320312 0.988281 6.125 1 C 5.925781 1.019531 5.707031 1.03125 5.46875 1.03125 C 5.300781 1.03125 5.054688 1.015625 4.734375 0.984375 C 4.347656 1.003906 3.941406 0.9375 3.515625 0.78125 C 3.085938 0.632812 2.695312 0.421875 2.34375 0.140625 C 1.664062 -0.429688 1.328125 -1.066406 1.328125 -1.765625 C 1.328125 -2.347656 1.578125 -2.941406 2.078125 -3.546875 C 2.328125 -3.503906 2.472656 -3.425781 2.515625 -3.3125 C 2.554688 -3.195312 2.5625 -3.066406 2.53125 -2.921875 C 2.507812 -2.785156 2.5 -2.671875 2.5 -2.578125 C 2.5 -2.523438 2.519531 -2.445312 2.5625 -2.34375 C 3.25 -2.019531 4.070312 -1.859375 5.03125 -1.859375 C 6.101562 -1.859375 7.113281 -2.039062 8.0625 -2.40625 C 9.007812 -2.769531 9.585938 -3.21875 9.796875 -3.75 C 9.921875 -4.113281 9.617188 -4.742188 8.890625 -5.640625 C 8.171875 -6.535156 7.359375 -7.410156 6.453125 -8.265625 C 5.597656 -9.023438 4.820312 -9.773438 4.125 -10.515625 C 3.738281 -10.941406 3.429688 -11.4375 3.203125 -12 C 2.984375 -12.5625 2.875 -13.144531 2.875 -13.75 C 2.875 -14.5625 3.082031 -15.332031 3.5 -16.0625 C 3.914062 -16.789062 4.539062 -17.382812 5.375 -17.84375 C 6.976562 -18.75 8.613281 -19.203125 10.28125 -19.203125 C 10.507812 -19.203125 10.835938 -19.1875 11.265625 -19.15625 C 11.660156 -19.113281 11.945312 -19.050781 12.125 -18.96875 Z M 12.125 -18.96875 "/></g></g></g><g fill="#350b89" fill-opacity="1"><g transform="translate(72.242971, 48.647614)"><g><path d="M 3.09375 0 L 1.28125 -4.71875 L 1.25 -4.71875 C 1.28125 -4.34375 1.296875 -3.898438 1.296875 -3.390625 L 1.296875 0 L 0.734375 0 L 0.734375 -5.328125 L 1.65625 -5.328125 L 3.34375 -0.9375 L 3.375 -0.9375 L 5.078125 -5.328125 L 6 -5.328125 L 6 0 L 5.375 0 L 5.375 -3.421875 C 5.375 -3.816406 5.394531 -4.242188 5.4375 -4.703125 L 5.40625 -4.703125 L 3.578125 0 Z M 3.09375 0 "/></g></g></g><g fill="#350b89" fill-opacity="1"><g transform="translate(80.504688, 48.647614)"><g><path d="M 3.09375 0 L 2.96875 -0.5625 L 2.9375 -0.5625 C 2.738281 -0.3125 2.539062 -0.140625 2.34375 -0.046875 C 2.144531 0.0351562 1.898438 0.078125 1.609375 0.078125 C 1.210938 0.078125 0.898438 -0.0195312 0.671875 -0.21875 C 0.453125 -0.425781 0.34375 -0.722656 0.34375 -1.109375 C 0.34375 -1.910156 0.988281 -2.332031 2.28125 -2.375 L 2.953125 -2.390625 L 2.953125 -2.640625 C 2.953125 -2.953125 2.882812 -3.179688 2.75 -3.328125 C 2.613281 -3.484375 2.398438 -3.5625 2.109375 -3.5625 C 1.773438 -3.5625 1.394531 -3.457031 0.96875 -3.25 L 0.796875 -3.71875 C 0.984375 -3.820312 1.191406 -3.898438 1.421875 -3.953125 C 1.660156 -4.015625 1.898438 -4.046875 2.140625 -4.046875 C 2.617188 -4.046875 2.972656 -3.941406 3.203125 -3.734375 C 3.429688 -3.523438 3.546875 -3.1875 3.546875 -2.71875 L 3.546875 0 Z M 1.734375 -0.421875 C 2.109375 -0.421875 2.398438 -0.523438 2.609375 -0.734375 C 2.828125 -0.941406 2.9375 -1.226562 2.9375 -1.59375 L 2.9375 -1.96875 L 2.328125 -1.9375 C 1.847656 -1.914062 1.5 -1.835938 1.28125 -1.703125 C 1.070312 -1.578125 0.96875 -1.375 0.96875 -1.09375 C 0.96875 -0.875 1.035156 -0.707031 1.171875 -0.59375 C 1.304688 -0.476562 1.492188 -0.421875 1.734375 -0.421875 Z M 1.734375 -0.421875 "/></g></g></g><g fill="#350b89" fill-opacity="1"><g transform="translate(86.181165, 48.647614)"><g><path d="M 2.453125 -4.0625 C 2.628906 -4.0625 2.789062 -4.046875 2.9375 -4.015625 L 2.859375 -3.453125 C 2.691406 -3.492188 2.546875 -3.515625 2.421875 -3.515625 C 2.097656 -3.515625 1.820312 -3.378906 1.59375 -3.109375 C 1.363281 -2.847656 1.25 -2.523438 1.25 -2.140625 L 1.25 0 L 0.640625 0 L 0.640625 -3.984375 L 1.140625 -3.984375 L 1.203125 -3.25 L 1.234375 -3.25 C 1.378906 -3.507812 1.554688 -3.707031 1.765625 -3.84375 C 1.972656 -3.988281 2.203125 -4.0625 2.453125 -4.0625 Z M 2.453125 -4.0625 "/></g></g></g><g fill="#350b89" fill-opacity="1"><g transform="translate(90.754363, 48.647614)"><g><path d="M 1.234375 -2.046875 C 1.335938 -2.191406 1.5 -2.382812 1.71875 -2.625 L 3 -3.984375 L 3.71875 -3.984375 L 2.109375 -2.296875 L 3.828125 0 L 3.09375 0 L 1.6875 -1.890625 L 1.234375 -1.484375 L 1.234375 0 L 0.640625 0 L 0.640625 -5.65625 L 1.234375 -5.65625 L 1.234375 -2.65625 C 1.234375 -2.519531 1.222656 -2.316406 1.203125 -2.046875 Z M 1.234375 -2.046875 "/></g></g></g><g fill="#350b89" fill-opacity="1"><g transform="translate(96.197805, 48.647614)"><g><path d="M 2.328125 0.078125 C 1.734375 0.078125 1.265625 -0.0976562 0.921875 -0.453125 C 0.585938 -0.816406 0.421875 -1.320312 0.421875 -1.96875 C 0.421875 -2.601562 0.578125 -3.109375 0.890625 -3.484375 C 1.210938 -3.867188 1.640625 -4.0625 2.171875 -4.0625 C 2.671875 -4.0625 3.066406 -3.894531 3.359375 -3.5625 C 3.648438 -3.238281 3.796875 -2.804688 3.796875 -2.265625 L 3.796875 -1.890625 L 1.046875 -1.890625 C 1.054688 -1.421875 1.171875 -1.0625 1.390625 -0.8125 C 1.617188 -0.570312 1.9375 -0.453125 2.34375 -0.453125 C 2.769531 -0.453125 3.195312 -0.539062 3.625 -0.71875 L 3.625 -0.1875 C 3.40625 -0.09375 3.203125 -0.0234375 3.015625 0.015625 C 2.828125 0.0546875 2.597656 0.078125 2.328125 0.078125 Z M 2.15625 -3.5625 C 1.84375 -3.5625 1.585938 -3.453125 1.390625 -3.234375 C 1.203125 -3.023438 1.09375 -2.738281 1.0625 -2.375 L 3.140625 -2.375 C 3.140625 -2.757812 3.054688 -3.050781 2.890625 -3.25 C 2.722656 -3.457031 2.476562 -3.5625 2.15625 -3.5625 Z M 2.15625 -3.5625 "/></g></g></g><g fill="#350b89" fill-opacity="1"><g transform="translate(101.910695, 48.647614)"><g><path d="M 1.921875 -0.421875 C 2.035156 -0.421875 2.140625 -0.425781 2.234375 -0.4375 C 2.335938 -0.457031 2.414062 -0.476562 2.46875 -0.5 L 2.46875 -0.03125 C 2.40625 0 2.3125 0.0234375 2.1875 0.046875 C 2.0625 0.0664062 1.945312 0.078125 1.84375 0.078125 C 1.070312 0.078125 0.6875 -0.328125 0.6875 -1.140625 L 0.6875 -3.515625 L 0.109375 -3.515625 L 0.109375 -3.8125 L 0.6875 -4.0625 L 0.9375 -4.90625 L 1.28125 -4.90625 L 1.28125 -3.984375 L 2.453125 -3.984375 L 2.453125 -3.515625 L 1.28125 -3.515625 L 1.28125 -1.171875 C 1.28125 -0.929688 1.335938 -0.742188 1.453125 -0.609375 C 1.566406 -0.484375 1.722656 -0.421875 1.921875 -0.421875 Z M 1.921875 -0.421875 "/></g></g></g></svg>